<mxfile host="app.diagrams.net" modified="2021-04-08T02:47:55.070Z" agent="5.0 (Windows NT 10.0; Win64; x64) AppleWebKit/537.36 (KHTML, like Gecko) Chrome/89.0.4389.90 Safari/537.36" etag="7_IH0HiQFoJR5UxCktvB" version="14.5.3" type="github">
  <diagram id="C5RBs43oDa-KdzZeNtuy" name="Page-1">
    <mxGraphModel dx="1422" dy="633" grid="1" gridSize="10" guides="1" tooltips="1" connect="1" arrows="1" fold="1" page="1" pageScale="1" pageWidth="827" pageHeight="1169" math="0" shadow="0">
      <root>
        <mxCell id="WIyWlLk6GJQsqaUBKTNV-0" />
        <mxCell id="WIyWlLk6GJQsqaUBKTNV-1" parent="WIyWlLk6GJQsqaUBKTNV-0" />
        <mxCell id="mER0PaOWfNaouDAf2oOQ-0" value="这里显示原来的搜索条件行" style="rounded=0;whiteSpace=wrap;html=1;" vertex="1" parent="WIyWlLk6GJQsqaUBKTNV-1">
          <mxGeometry x="120" y="50" width="600" height="50" as="geometry" />
        </mxCell>
        <mxCell id="mER0PaOWfNaouDAf2oOQ-1" value="广告专员得分统计" style="rounded=0;whiteSpace=wrap;html=1;" vertex="1" parent="WIyWlLk6GJQsqaUBKTNV-1">
          <mxGeometry x="120" y="120" width="120" height="60" as="geometry" />
        </mxCell>
        <mxCell id="mER0PaOWfNaouDAf2oOQ-2" value="店铺明细统计" style="rounded=0;whiteSpace=wrap;html=1;" vertex="1" parent="WIyWlLk6GJQsqaUBKTNV-1">
          <mxGeometry x="400" y="120" width="120" height="60" as="geometry" />
        </mxCell>
        <mxCell id="mER0PaOWfNaouDAf2oOQ-3" value="得分明细统计" style="rounded=0;whiteSpace=wrap;html=1;" vertex="1" parent="WIyWlLk6GJQsqaUBKTNV-1">
          <mxGeometry x="260" y="120" width="120" height="60" as="geometry" />
        </mxCell>
        <mxCell id="mER0PaOWfNaouDAf2oOQ-4" value="" style="shape=table;html=1;whiteSpace=wrap;startSize=0;container=1;collapsible=0;childLayout=tableLayout;" vertex="1" parent="WIyWlLk6GJQsqaUBKTNV-1">
          <mxGeometry x="120" y="240" width="640" height="180" as="geometry" />
        </mxCell>
        <mxCell id="mER0PaOWfNaouDAf2oOQ-5" value="" style="shape=partialRectangle;html=1;whiteSpace=wrap;collapsible=0;dropTarget=0;pointerEvents=0;fillColor=none;top=0;left=0;bottom=0;right=0;points=[[0,0.5],[1,0.5]];portConstraint=eastwest;" vertex="1" parent="mER0PaOWfNaouDAf2oOQ-4">
          <mxGeometry width="640" height="48" as="geometry" />
        </mxCell>
        <mxCell id="mER0PaOWfNaouDAf2oOQ-6" value="" style="shape=partialRectangle;html=1;whiteSpace=wrap;connectable=0;overflow=hidden;fillColor=none;top=0;left=0;bottom=0;right=0;" vertex="1" parent="mER0PaOWfNaouDAf2oOQ-5">
          <mxGeometry width="128" height="48" as="geometry" />
        </mxCell>
        <mxCell id="mER0PaOWfNaouDAf2oOQ-7" value="" style="shape=partialRectangle;html=1;whiteSpace=wrap;connectable=0;overflow=hidden;fillColor=none;top=0;left=0;bottom=0;right=0;" vertex="1" parent="mER0PaOWfNaouDAf2oOQ-5">
          <mxGeometry x="128" width="128" height="48" as="geometry" />
        </mxCell>
        <mxCell id="mER0PaOWfNaouDAf2oOQ-8" value="" style="shape=partialRectangle;html=1;whiteSpace=wrap;connectable=0;overflow=hidden;fillColor=none;top=0;left=0;bottom=0;right=0;" vertex="1" parent="mER0PaOWfNaouDAf2oOQ-5">
          <mxGeometry x="256" width="128" height="48" as="geometry" />
        </mxCell>
        <mxCell id="mER0PaOWfNaouDAf2oOQ-9" value="" style="shape=partialRectangle;html=1;whiteSpace=wrap;connectable=0;overflow=hidden;fillColor=none;top=0;left=0;bottom=0;right=0;" vertex="1" parent="mER0PaOWfNaouDAf2oOQ-5">
          <mxGeometry x="384" width="128" height="48" as="geometry" />
        </mxCell>
        <mxCell id="mER0PaOWfNaouDAf2oOQ-10" value="" style="shape=partialRectangle;html=1;whiteSpace=wrap;connectable=0;overflow=hidden;fillColor=none;top=0;left=0;bottom=0;right=0;" vertex="1" parent="mER0PaOWfNaouDAf2oOQ-5">
          <mxGeometry x="512" width="128" height="48" as="geometry" />
        </mxCell>
        <mxCell id="mER0PaOWfNaouDAf2oOQ-11" value="" style="shape=partialRectangle;html=1;whiteSpace=wrap;collapsible=0;dropTarget=0;pointerEvents=0;fillColor=none;top=0;left=0;bottom=0;right=0;points=[[0,0.5],[1,0.5]];portConstraint=eastwest;" vertex="1" parent="mER0PaOWfNaouDAf2oOQ-4">
          <mxGeometry y="48" width="640" height="36" as="geometry" />
        </mxCell>
        <mxCell id="mER0PaOWfNaouDAf2oOQ-12" value="" style="shape=partialRectangle;html=1;whiteSpace=wrap;connectable=0;overflow=hidden;fillColor=none;top=0;left=0;bottom=0;right=0;" vertex="1" parent="mER0PaOWfNaouDAf2oOQ-11">
          <mxGeometry width="128" height="36" as="geometry" />
        </mxCell>
        <mxCell id="mER0PaOWfNaouDAf2oOQ-13" value="" style="shape=partialRectangle;html=1;whiteSpace=wrap;connectable=0;overflow=hidden;fillColor=none;top=0;left=0;bottom=0;right=0;" vertex="1" parent="mER0PaOWfNaouDAf2oOQ-11">
          <mxGeometry x="128" width="128" height="36" as="geometry" />
        </mxCell>
        <mxCell id="mER0PaOWfNaouDAf2oOQ-14" value="" style="shape=partialRectangle;html=1;whiteSpace=wrap;connectable=0;overflow=hidden;fillColor=none;top=0;left=0;bottom=0;right=0;" vertex="1" parent="mER0PaOWfNaouDAf2oOQ-11">
          <mxGeometry x="256" width="128" height="36" as="geometry" />
        </mxCell>
        <mxCell id="mER0PaOWfNaouDAf2oOQ-15" value="" style="shape=partialRectangle;html=1;whiteSpace=wrap;connectable=0;overflow=hidden;fillColor=none;top=0;left=0;bottom=0;right=0;" vertex="1" parent="mER0PaOWfNaouDAf2oOQ-11">
          <mxGeometry x="384" width="128" height="36" as="geometry" />
        </mxCell>
        <mxCell id="mER0PaOWfNaouDAf2oOQ-16" value="" style="shape=partialRectangle;html=1;whiteSpace=wrap;connectable=0;overflow=hidden;fillColor=none;top=0;left=0;bottom=0;right=0;" vertex="1" parent="mER0PaOWfNaouDAf2oOQ-11">
          <mxGeometry x="512" width="128" height="36" as="geometry" />
        </mxCell>
        <mxCell id="mER0PaOWfNaouDAf2oOQ-17" value="" style="shape=partialRectangle;html=1;whiteSpace=wrap;collapsible=0;dropTarget=0;pointerEvents=0;fillColor=none;top=0;left=0;bottom=0;right=0;points=[[0,0.5],[1,0.5]];portConstraint=eastwest;" vertex="1" parent="mER0PaOWfNaouDAf2oOQ-4">
          <mxGeometry y="84" width="640" height="48" as="geometry" />
        </mxCell>
        <mxCell id="mER0PaOWfNaouDAf2oOQ-18" value="" style="shape=partialRectangle;html=1;whiteSpace=wrap;connectable=0;overflow=hidden;fillColor=none;top=0;left=0;bottom=0;right=0;" vertex="1" parent="mER0PaOWfNaouDAf2oOQ-17">
          <mxGeometry width="128" height="48" as="geometry" />
        </mxCell>
        <mxCell id="mER0PaOWfNaouDAf2oOQ-19" value="" style="shape=partialRectangle;html=1;whiteSpace=wrap;connectable=0;overflow=hidden;fillColor=none;top=0;left=0;bottom=0;right=0;" vertex="1" parent="mER0PaOWfNaouDAf2oOQ-17">
          <mxGeometry x="128" width="128" height="48" as="geometry" />
        </mxCell>
        <mxCell id="mER0PaOWfNaouDAf2oOQ-20" value="" style="shape=partialRectangle;html=1;whiteSpace=wrap;connectable=0;overflow=hidden;fillColor=none;top=0;left=0;bottom=0;right=0;" vertex="1" parent="mER0PaOWfNaouDAf2oOQ-17">
          <mxGeometry x="256" width="128" height="48" as="geometry" />
        </mxCell>
        <mxCell id="mER0PaOWfNaouDAf2oOQ-21" value="" style="shape=partialRectangle;html=1;whiteSpace=wrap;connectable=0;overflow=hidden;fillColor=none;top=0;left=0;bottom=0;right=0;" vertex="1" parent="mER0PaOWfNaouDAf2oOQ-17">
          <mxGeometry x="384" width="128" height="48" as="geometry" />
        </mxCell>
        <mxCell id="mER0PaOWfNaouDAf2oOQ-22" value="" style="shape=partialRectangle;html=1;whiteSpace=wrap;connectable=0;overflow=hidden;fillColor=none;top=0;left=0;bottom=0;right=0;" vertex="1" parent="mER0PaOWfNaouDAf2oOQ-17">
          <mxGeometry x="512" width="128" height="48" as="geometry" />
        </mxCell>
        <mxCell id="mER0PaOWfNaouDAf2oOQ-23" value="" style="shape=partialRectangle;html=1;whiteSpace=wrap;collapsible=0;dropTarget=0;pointerEvents=0;fillColor=none;top=0;left=0;bottom=0;right=0;points=[[0,0.5],[1,0.5]];portConstraint=eastwest;" vertex="1" parent="mER0PaOWfNaouDAf2oOQ-4">
          <mxGeometry y="132" width="640" height="48" as="geometry" />
        </mxCell>
        <mxCell id="mER0PaOWfNaouDAf2oOQ-24" value="" style="shape=partialRectangle;html=1;whiteSpace=wrap;connectable=0;overflow=hidden;fillColor=none;top=0;left=0;bottom=0;right=0;" vertex="1" parent="mER0PaOWfNaouDAf2oOQ-23">
          <mxGeometry width="128" height="48" as="geometry" />
        </mxCell>
        <mxCell id="mER0PaOWfNaouDAf2oOQ-25" value="" style="shape=partialRectangle;html=1;whiteSpace=wrap;connectable=0;overflow=hidden;fillColor=none;top=0;left=0;bottom=0;right=0;" vertex="1" parent="mER0PaOWfNaouDAf2oOQ-23">
          <mxGeometry x="128" width="128" height="48" as="geometry" />
        </mxCell>
        <mxCell id="mER0PaOWfNaouDAf2oOQ-26" value="" style="shape=partialRectangle;html=1;whiteSpace=wrap;connectable=0;overflow=hidden;fillColor=none;top=0;left=0;bottom=0;right=0;" vertex="1" parent="mER0PaOWfNaouDAf2oOQ-23">
          <mxGeometry x="256" width="128" height="48" as="geometry" />
        </mxCell>
        <mxCell id="mER0PaOWfNaouDAf2oOQ-27" value="" style="shape=partialRectangle;html=1;whiteSpace=wrap;connectable=0;overflow=hidden;fillColor=none;top=0;left=0;bottom=0;right=0;" vertex="1" parent="mER0PaOWfNaouDAf2oOQ-23">
          <mxGeometry x="384" width="128" height="48" as="geometry" />
        </mxCell>
        <mxCell id="mER0PaOWfNaouDAf2oOQ-28" value="" style="shape=partialRectangle;html=1;whiteSpace=wrap;connectable=0;overflow=hidden;fillColor=none;top=0;left=0;bottom=0;right=0;" vertex="1" parent="mER0PaOWfNaouDAf2oOQ-23">
          <mxGeometry x="512" width="128" height="48" as="geometry" />
        </mxCell>
        <mxCell id="mER0PaOWfNaouDAf2oOQ-30" value="点击上面3个tab，下面的列表对应展示" style="text;html=1;strokeColor=none;fillColor=none;align=center;verticalAlign=middle;whiteSpace=wrap;rounded=0;" vertex="1" parent="WIyWlLk6GJQsqaUBKTNV-1">
          <mxGeometry x="510" y="190" width="130" height="30" as="geometry" />
        </mxCell>
      </root>
    </mxGraphModel>
  </diagram>
</mxfile>
